<svg width="358" height="419" viewBox="0 0 358 419" fill="none" xmlns="http://www.w3.org/2000/svg">
<path fill-rule="evenodd" clip-rule="evenodd" d="M209 0.000579834C93.5262 0.270335 0 93.963 0 209.5C0 325.037 93.5262 418.73 209 418.999V357.999C127.216 357.73 61 291.348 61 209.5C61 127.652 127.216 61.2704 209 61.0008V0.000579834Z" fill="white"/>
<path fill-rule="evenodd" clip-rule="evenodd" d="M209 357.999C209.167 358 209.333 358 209.5 358C291.514 358 358 291.514 358 209.5C358 127.486 291.514 61 209.5 61C209.333 61 209.167 61.0003 209 61.0008V122.001C209.167 122 209.333 122 209.5 122C257.825 122 297 161.175 297 209.5C297 257.825 257.825 297 209.5 297C209.333 297 209.167 297 209 296.999V357.999Z" fill="#F0CB52"/>
<path fill-rule="evenodd" clip-rule="evenodd" d="M209 122.001C160.905 122.271 122 161.342 122 209.5C122 257.658 160.905 296.729 209 296.999V257.997C182.444 257.729 161 236.119 161 209.5C161 182.881 182.444 161.271 209 161.003V122.001Z" fill="white"/>
<path fill-rule="evenodd" clip-rule="evenodd" d="M209 257.997C209.166 257.999 209.333 258 209.5 258C236.286 258 258 236.286 258 209.5C258 182.714 236.286 161 209.5 161C209.333 161 209.166 161.001 209 161.003V257.997Z" fill="#ED4F4F"/>
</svg>
